<svg xmlns="http://www.w3.org/2000/svg" viewBox="0 0 256 256" role="img" aria-labelledby="title desc">
  <title id="title">Trojan Port Manager Icon</title>
  <desc id="desc">A server rack with traffic flow arrows representing port switching and subscription routing.</desc>
  <defs>
    <linearGradient id="bg" x1="32" y1="24" x2="224" y2="232" gradientUnits="userSpaceOnUse">
      <stop offset="0" stop-color="#233b63"/>
      <stop offset="0.56" stop-color="#1d587a"/>
      <stop offset="1" stop-color="#0e8f8a"/>
    </linearGradient>
    <linearGradient id="cool" x1="56" y1="184" x2="182" y2="74" gradientUnits="userSpaceOnUse">
      <stop offset="0" stop-color="#7be8d5"/>
      <stop offset="1" stop-color="#b7f4ff"/>
    </linearGradient>
    <linearGradient id="warm" x1="190" y1="70" x2="86" y2="194" gradientUnits="userSpaceOnUse">
      <stop offset="0" stop-color="#ffd682"/>
      <stop offset="1" stop-color="#ff9f4d"/>
    </linearGradient>
    <linearGradient id="panel" x1="76" y1="62" x2="180" y2="202" gradientUnits="userSpaceOnUse">
      <stop offset="0" stop-color="#fdfefe"/>
      <stop offset="1" stop-color="#e5eff8"/>
    </linearGradient>
  </defs>

  <rect x="8" y="8" width="240" height="240" rx="56" fill="url(#bg)"/>
  <path d="M40 52C81 23 149 22 212 58" fill="none" stroke="#ffffff" stroke-opacity=".08" stroke-width="18" stroke-linecap="round"/>
  <circle cx="194" cy="62" r="30" fill="#ffffff" fill-opacity=".08"/>
  <circle cx="68" cy="196" r="38" fill="#0b2d4f" fill-opacity=".16"/>

  <path d="M54 114C66 80 95 59 130 59H160" fill="none" stroke="url(#warm)" stroke-width="16" stroke-linecap="round"/>
  <path d="M152 42L184 59L152 76" fill="none" stroke="url(#warm)" stroke-width="16" stroke-linecap="round" stroke-linejoin="round"/>

  <path d="M202 144C193 178 161 198 125 198H96" fill="none" stroke="url(#cool)" stroke-width="16" stroke-linecap="round"/>
  <path d="M104 181L72 198L104 215" fill="none" stroke="url(#cool)" stroke-width="16" stroke-linecap="round" stroke-linejoin="round"/>

  <g filter="">
    <rect x="72" y="58" width="112" height="140" rx="28" fill="url(#panel)"/>
    <rect x="82" y="68" width="92" height="120" rx="22" fill="#f8fbff"/>
    <rect x="92" y="80" width="72" height="25" rx="12" fill="#dce8f3"/>
    <rect x="102" y="89" width="31" height="6" rx="3" fill="#56708d"/>
    <rect x="92" y="114" width="72" height="25" rx="12" fill="#dce8f3"/>
    <rect x="102" y="123" width="31" height="6" rx="3" fill="#56708d"/>
    <rect x="92" y="148" width="72" height="25" rx="12" fill="#dce8f3"/>
    <rect x="102" y="157" width="31" height="6" rx="3" fill="#56708d"/>

    <circle cx="146" cy="92" r="4.5" fill="#0e8f8a"/>
    <circle cx="158" cy="92" r="4.5" fill="#2d6b97"/>
    <circle cx="146" cy="126" r="4.5" fill="#0e8f8a"/>
    <circle cx="158" cy="126" r="4.5" fill="#2d6b97"/>
    <circle cx="146" cy="160" r="4.5" fill="#0e8f8a"/>
    <circle cx="158" cy="160" r="4.5" fill="#2d6b97"/>
  </g>

  <path d="M188 174C194 168 204 168 210 174" fill="none" stroke="#ffffff" stroke-opacity=".55" stroke-width="6" stroke-linecap="round"/>
  <path d="M188 189C196 180 209 180 217 189" fill="none" stroke="#ffffff" stroke-opacity=".3" stroke-width="6" stroke-linecap="round"/>
</svg>
